<svg xmlns="http://www.w3.org/2000/svg" width="43.918" height="43.918" viewBox="0 0 43.918 43.918">
  <g id="Frame" style="isolation: isolate">
    <g id="Group" transform="translate(0 0)">
      <path id="Vector" d="M40.947,32.938l-4.65-7.1v-.128l7.622-3.747L36.3,18.213v-.128l4.65-7.1-8.525.516.516-8.525-7.1,4.65h-.128L21.959,0,18.212,7.622h-.128l-7.1-4.65L11.5,11.5l-8.525-.516,4.65,7.1v.128L0,21.959l7.622,3.747v.128l-4.65,7.1,8.525-.516-.516,8.525,7.1-4.65h.128l3.747,7.622L25.706,36.3h.128l7.1,4.65-.516-8.525Zm-18.987-.644A10.334,10.334,0,1,1,32.293,21.959,10.364,10.364,0,0,1,21.959,32.293Z" fill="#222325"/>
      <path id="Vector-2" data-name="Vector" d="M7.75,0A7.75,7.75,0,1,0,15.5,7.75,7.773,7.773,0,0,0,7.75,0Z" transform="translate(14.209 14.209)" fill="#fff"/>
    </g>
  </g>
</svg>
