<svg xmlns="http://www.w3.org/2000/svg" width="41.332" height="40.041" viewBox="0 0 41.332 40.041">
  <g id="Frame" style="isolation: isolate">
    <path id="Vector" d="M33.453,3.875A37.784,37.784,0,0,0,33.582,0H7.75a37.785,37.785,0,0,0,.128,3.875H0V5.166C0,16.663,14.6,24.8,18.084,26.607c5.182,0,.391,0,5.163,0C26.735,24.8,41.332,16.662,41.332,5.168V3.877ZM2.712,6.459H8.137a33.974,33.974,0,0,0,3.487,12.916C7.491,16.147,3.228,11.625,2.712,6.459ZM29.837,19.375A33.988,33.988,0,0,0,33.325,6.459H38.75C38.1,11.625,33.841,16.147,29.837,19.375Z" transform="translate(0 0)" fill="#222325"/>
    <path id="Vector-2" data-name="Vector" d="M18.082,31a3.8,3.8,0,0,1-3.875,3.875H11.623v5.166H29.707V34.875H27.123A3.8,3.8,0,0,1,23.248,31Z" fill="#fff"/>
  </g>
</svg>
