<svg xmlns="http://www.w3.org/2000/svg" xmlns:xlink="http://www.w3.org/1999/xlink" width="141.962" height="40" viewBox="0 0 141.962 40">
  <defs>
    <clipPath id="clip-path">
      <path id="Polygon_2" data-name="Polygon 2" d="M29.815,0a.391.391,0,0,1,.333.186L39.942,16.1a.391.391,0,0,1,0,.41L30.148,32.427a.391.391,0,0,1-.333.186H10.184a.391.391,0,0,1-.333-.186L.058,16.511a.391.391,0,0,1,0-.41L9.851.186A.391.391,0,0,1,10.184,0Z" transform="translate(0 40) rotate(-90)" fill="#222325"/>
    </clipPath>
    <clipPath id="clip-path-2">
      <path id="Polygon_2-2" data-name="Polygon 2" d="M29.815,0a.391.391,0,0,1,.333.186L39.942,16.1a.391.391,0,0,1,0,.41L30.148,32.427a.391.391,0,0,1-.333.186H10.184a.391.391,0,0,1-.333-.186L.058,16.511a.391.391,0,0,1,0-.41L9.851.186A.391.391,0,0,1,10.184,0Z" transform="translate(0 40) rotate(-90)" fill="#fff"/>
    </clipPath>
  </defs>
  <g id="Group_728" data-name="Group 728" transform="translate(-728 -898)">
    <g id="Group_23" data-name="Group 23" transform="translate(768.769 905.075)">
      <path id="Path_33" data-name="Path 33" d="M24.14-295.046a5.971,5.971,0,0,0,4.17-1.414,4.907,4.907,0,0,0,1.378-2.031,6.647,6.647,0,0,0,.471-2.647v-2.321a5.211,5.211,0,0,0-1.994-4.569,5.073,5.073,0,0,0,1.45-3.916V-314.3a7.089,7.089,0,0,0-.471-2.683,4.906,4.906,0,0,0-1.378-2.031,6.053,6.053,0,0,0-4.17-1.414H18.12v25.384Zm-2.031-10.661H24.14a2.142,2.142,0,0,1,1.487.435,2.425,2.425,0,0,1,.544,1.813v2.321a2.278,2.278,0,0,1-.508,1.7,2.257,2.257,0,0,1-1.523.4H22.109Zm0-10.734H23.6a2.257,2.257,0,0,1,1.523.4,2.415,2.415,0,0,1,.508,1.741v2.357a2.5,2.5,0,0,1-.544,1.813,2.142,2.142,0,0,1-1.487.435H22.109Zm20.96,21.4v-3.989H36.542v-21.4H32.553v25.384Zm7.615.117a5.923,5.923,0,0,0,4.207-1.487,6.275,6.275,0,0,0,1.813-4.75v-13.317a6.275,6.275,0,0,0-1.813-4.75,5.923,5.923,0,0,0-4.207-1.487,5.922,5.922,0,0,0-4.206,1.487,6.275,6.275,0,0,0-1.813,4.75v13.316a6.275,6.275,0,0,0,1.813,4.75,5.923,5.923,0,0,0,4.207,1.487Zm0-21.8a2.061,2.061,0,0,1,1.487.435,2.352,2.352,0,0,1,.544,1.813v13.317a2.352,2.352,0,0,1-.544,1.813,2.062,2.062,0,0,1-1.487.435,2.142,2.142,0,0,1-1.487-.435,2.425,2.425,0,0,1-.544-1.813v-13.317A2.425,2.425,0,0,1,49.2-316.3a2.141,2.141,0,0,1,1.487-.435Zm14.36,21.8a5.923,5.923,0,0,0,4.206-1.487,6.275,6.275,0,0,0,1.813-4.75v-3.264H67.075v3.264a2.462,2.462,0,0,1-.508,1.813,2.2,2.2,0,0,1-1.523.435,2.142,2.142,0,0,1-1.487-.435,2.425,2.425,0,0,1-.544-1.813v-13.317a2.425,2.425,0,0,1,.544-1.813,2.142,2.142,0,0,1,1.487-.435,2.2,2.2,0,0,1,1.523.435,2.462,2.462,0,0,1,.508,1.813v2.248h3.989v-2.248a6.275,6.275,0,0,0-1.813-4.75,5.922,5.922,0,0,0-4.206-1.487,6.087,6.087,0,0,0-4.207,1.487,6.424,6.424,0,0,0-1.813,4.75v13.317a6.424,6.424,0,0,0,1.813,4.75A6.088,6.088,0,0,0,65.044-294.929Zm16.064-13.462,5.113,13.345H81.943l-3.082-8.123-1.378,3.155v4.968H73.494V-320.43h3.989v10.3l4.424-10.3h4.315Z" transform="translate(-18.12 320.72)" fill="#fff"/>
      <path id="Path_34" data-name="Path 34" d="M9.163-133.029a2.763,2.763,0,0,0,1.962-.694,2.927,2.927,0,0,0,.846-2.216v-1.522H10.11v1.522a1.149,1.149,0,0,1-.237.846,1.027,1.027,0,0,1-.71.2,1,1,0,0,1-.694-.2,1.132,1.132,0,0,1-.254-.846v-6.292a1.131,1.131,0,0,1,.254-.846,1,1,0,0,1,.694-.2,1.027,1.027,0,0,1,.71.2,1.148,1.148,0,0,1,.237.846v1.049h1.861v-1.049a2.927,2.927,0,0,0-.846-2.216,2.763,2.763,0,0,0-1.962-.694,2.839,2.839,0,0,0-1.962.694,3,3,0,0,0-.846,2.216v6.292a3,3,0,0,0,.846,2.216A2.839,2.839,0,0,0,9.163-133.029ZM16.859-145H18.72v11.841H16.859v-5.142H14.965v5.142H13.1V-145h1.861v4.838h1.895Zm7.46,11.841-.338-1.878H21.849l-.338,1.877H19.616L21.985-145h1.861l2.368,11.841ZM22.171-136.9h1.489l-.744-4.246Zm6.817,3.738V-145H27.127v11.841ZM36.058-145v11.841H34.975l-2.842-6v6h-1.86V-145h1.083l2.842,5.988V-145Z" transform="translate(64.867 145.14)" fill="#fff"/>
      <path id="Path_35" data-name="Path 35" d="M12.548-125.835v-1.786H9.626V-137.2H7.84v11.365Z" transform="translate(63.382 151.626)" fill="#fff"/>
      <path id="Path_36" data-name="Path 36" d="M102.863-125.835l-.325-1.8h-2.046l-.325,1.8H98.35l2.273-11.365h1.786l2.273,11.365Zm-2.062-3.588h1.429l-.715-4.075Z" transform="translate(-20.05 151.626)" fill="#fff"/>
      <path id="Path_37" data-name="Path 37" d="M218.078-137.2v11.365h-1.039l-2.728-5.764v5.764h-1.786V-137.2h1.039l2.728,5.747V-137.2Z" transform="translate(-125.295 151.626)" fill="#fff"/>
      <path id="Path_38" data-name="Path 38" d="M324.832-125.839a2.672,2.672,0,0,0,1.867-.633,2.411,2.411,0,0,0,.633-.909,3.359,3.359,0,0,0,.195-1.185v-5.845a2.724,2.724,0,0,0-.812-2.111,2.65,2.65,0,0,0-1.883-.682h-2.7v11.365Zm-.909-9.579h.909a.959.959,0,0,1,.666.195,1.12,1.12,0,0,1,.244.812v5.845a.987.987,0,0,1-.227.763,1.01,1.01,0,0,1-.682.179h-.909Z" transform="translate(-226.335 151.63)" fill="#fff"/>
    </g>
    <g id="Group_726" data-name="Group 726">
      <g id="Group_17" data-name="Group 17" transform="translate(728 898)">
        <g id="Mask_Group_1" data-name="Mask Group 1" transform="translate(0 0)" clip-path="url(#clip-path)">
          <path id="Polygon_3" data-name="Polygon 3" d="M28.462,0l9.487,16.307L28.462,32.613H9.487L0,16.307,9.487,0Z" transform="translate(0 37.881) rotate(-90)" fill="#222325"/>
          <path id="Path_28" data-name="Path 28" d="M28.462,0l9.487,16.307H0L9.487,0Z" transform="translate(0 37.881) rotate(-90)" fill="#222325"/>
          <path id="Path_29" data-name="Path 29" d="M37.949,0,28.462,16.307H9.487L0,0Z" transform="translate(16.306 37.881) rotate(-90)" fill="#222325"/>
          <path id="Path_19" data-name="Path 19" d="M213.4,380.388,208.084,387l5.323.892,5.291-2.339Z" transform="translate(-191.649 -372.022)" fill="#222325"/>
          <path id="Path_20" data-name="Path 20" d="M264.635,425.049l-6.324,3.935-5.529-3.023,5.284-2.317Z" transform="translate(-231.045 -410.148)" fill="#222325"/>
          <path id="Path_21" data-name="Path 21" d="M213.167,452.23l4.884-6.219-5.376-2.811-5.411,6.535Z" transform="translate(-190.926 -427.385)" fill="#222325"/>
          <path id="Path_22" data-name="Path 22" d="M171.533,501.053l-6.573.656-5.692-1.476,5.692-1.933Z" transform="translate(-148.622 -475.95)" fill="#222325"/>
          <path id="Path_23" data-name="Path 23" d="M126,466.4l-5.286-.647,4.748,6.109,5.516-2.249Z" transform="translate(-114.64 -447.262)" fill="#222325"/>
          <path id="Path_24" data-name="Path 24" d="M164.307,440.049l5.257-4.232,5.248.875-5.411,6.535Z" transform="translate(-153.064 -420.878)" fill="#222325"/>
          <path id="Path_25" data-name="Path 25" d="M76.892,445.388l-5.236-.7-6.6,1.261,6.27-4.094Z" transform="translate(-65.579 -426.203)" fill="#222325"/>
          <path id="Path_26" data-name="Path 26" d="M123.376,432l5.222-4.255-4.385-1.086-6.385,1.806Z" transform="translate(-112.097 -412.81)" fill="#222325"/>
          <path id="Path_27" data-name="Path 27" d="M181.044,380.093l-5.27,6.617-4.414-1.073Z" transform="translate(-159.28 -371.762)" fill="#222325"/>
          <path id="Path_15" data-name="Path 15" d="M-1524.179,3922.09l-5.435,3.361-4.975,5.9-5.62,1.059-5.159-1.06-5.343-5.9-6.08.875V3939.5l16.26,8.246,16.352-7.877Z" transform="translate(1556.792 -3906.97)" fill="#222325"/>
          <path id="Path_30" data-name="Path 30" d="M-1403.33,3922.09l-5.436,3.361-4.975,5.9-5.62,1.059-.323,15.339,16.353-7.877Z" transform="translate(1435.943 -3906.97)" fill="#222325"/>
          <path id="Path_16" data-name="Path 16" d="M-1524.175,3933.089l-5.435.843-4.975,6.494-5.62,1.9-5.758-2.77-5.159-6.465h-5.666v16.089l16.26,8.246,16.352-7.877Z" transform="translate(1556.788 -3911.813)" fill="#222325"/>
          <path id="Path_31" data-name="Path 31" d="M-1403.326,3933.09l-5.435.843-4.975,6.493-5.62,1.9-.322,15.1,16.353-7.876Z" transform="translate(1435.939 -3911.814)" fill="#222325"/>
          <path id="Path_17" data-name="Path 17" d="M-1524.173,3906.774l-5.481.276-5.205,5.344-5.343,1.713-5.666-2.911-5.344-5.159-5.573-.921v19.434l16.26,8.245,16.352-7.876Z" transform="translate(1556.786 -3879.172)" fill="#222325"/>
          <path id="Path_32" data-name="Path 32" d="M-1403.325,3919.1l-5.481.276-5.205,5.344-5.343,1.713-.322,18.687,16.352-7.876Z" transform="translate(1435.937 -3891.498)" fill="#222325"/>
        </g>
      </g>
      <g id="Group_17-2" data-name="Group 17" transform="translate(728 898)" style="mix-blend-mode: luminosity;isolation: isolate">
        <g id="Mask_Group_1-2" data-name="Mask Group 1" transform="translate(0 0)" clip-path="url(#clip-path-2)">
          <path id="Polygon_3-2" data-name="Polygon 3" d="M28.462,0l9.487,16.307L28.462,32.613H9.487L0,16.307,9.487,0Z" transform="translate(0 37.881) rotate(-90)" fill="#fff"/>
          <path id="Path_28-2" data-name="Path 28" d="M28.462,0l9.487,16.307H0L9.487,0Z" transform="translate(0 37.881) rotate(-90)" fill="#87def8"/>
          <path id="Path_29-2" data-name="Path 29" d="M37.949,0,28.462,16.307H9.487L0,0Z" transform="translate(16.306 37.881) rotate(-90)" fill="#c4eaff"/>
          <path id="Path_19-2" data-name="Path 19" d="M213.4,380.388,208.084,387l5.323.892,5.291-2.339Z" transform="translate(-191.649 -372.022)" fill="#2f6a32"/>
          <path id="Path_20-2" data-name="Path 20" d="M264.635,425.049l-6.324,3.935-5.529-3.023,5.284-2.317Z" transform="translate(-231.045 -410.148)" fill="#2d8639"/>
          <path id="Path_21-2" data-name="Path 21" d="M213.167,452.23l4.884-6.219-5.376-2.811-5.411,6.535Z" transform="translate(-190.926 -427.385)" fill="#44a845"/>
          <path id="Path_22-2" data-name="Path 22" d="M171.533,501.053l-6.573.656-5.692-1.476,5.692-1.933Z" transform="translate(-148.622 -475.95)" fill="#2f853c"/>
          <path id="Path_23-2" data-name="Path 23" d="M126,466.4l-5.286-.647,4.748,6.109,5.516-2.249Z" transform="translate(-114.64 -447.262)" fill="#2b6e36"/>
          <path id="Path_24-2" data-name="Path 24" d="M164.307,440.049l5.257-4.232,5.248.875-5.411,6.535Z" transform="translate(-153.064 -420.878)" fill="#308741"/>
          <path id="Path_25-2" data-name="Path 25" d="M76.892,445.388l-5.236-.7-6.6,1.261,6.27-4.094Z" transform="translate(-65.579 -426.203)" fill="#5baf59"/>
          <path id="Path_26-2" data-name="Path 26" d="M123.376,432l5.222-4.255-4.385-1.086-6.385,1.806Z" transform="translate(-112.097 -412.81)" fill="#45a94e"/>
          <path id="Path_27-2" data-name="Path 27" d="M181.044,380.093l-5.27,6.617-4.414-1.073Z" transform="translate(-159.28 -371.762)" fill="#4ab93b"/>
          <path id="Path_15-2" data-name="Path 15" d="M-1524.179,3922.09l-5.435,3.361-4.975,5.9-5.62,1.059-5.159-1.06-5.343-5.9-6.08.875V3939.5l16.26,8.246,16.352-7.877Z" transform="translate(1556.792 -3906.97)" fill="#4b4847"/>
          <path id="Path_30-2" data-name="Path 30" d="M-1403.33,3922.09l-5.436,3.361-4.975,5.9-5.62,1.059-.323,15.339,16.353-7.877Z" transform="translate(1435.943 -3906.97)" fill="#363435"/>
          <path id="Path_16-2" data-name="Path 16" d="M-1524.175,3933.089l-5.435.843-4.975,6.494-5.62,1.9-5.758-2.77-5.159-6.465h-5.666v16.089l16.26,8.246,16.352-7.877Z" transform="translate(1556.788 -3911.813)" fill="#6a6a6a"/>
          <path id="Path_31-2" data-name="Path 31" d="M-1403.326,3933.09l-5.435.843-4.975,6.493-5.62,1.9-.322,15.1,16.353-7.876Z" transform="translate(1435.939 -3911.814)" fill="#545454"/>
          <path id="Path_17-2" data-name="Path 17" d="M-1524.173,3906.774l-5.481.276-5.205,5.344-5.343,1.713-5.666-2.911-5.344-5.159-5.573-.921v19.434l16.26,8.245,16.352-7.876Z" transform="translate(1556.786 -3879.172)" fill="#8f8f8f"/>
          <path id="Path_32-2" data-name="Path 32" d="M-1403.325,3919.1l-5.481.276-5.205,5.344-5.343,1.713-.322,18.687,16.352-7.876Z" transform="translate(1435.937 -3891.498)" fill="#767676"/>
        </g>
      </g>
    </g>
  </g>
</svg>
