<svg xmlns="http://www.w3.org/2000/svg" width="74" height="74" viewBox="0 0 74 74">
  <g id="Group_1280" data-name="Group 1280" transform="translate(-368 -2878)">
    <circle id="Ellipse_109" data-name="Ellipse 109" cx="37" cy="37" r="37" transform="translate(368 2878)" fill="#222325"/>
    <g id="Group_779" data-name="Group 779" transform="translate(14 -969)">
      <g id="Group_771" data-name="Group 771" transform="translate(372.864 3864)">
        <path id="Path_10920" data-name="Path 10920" d="M26.079,5.678v7.255H9.679A7.2,7.2,0,0,0,2.5,20.112V13.105a5.437,5.437,0,0,1,3.513-5.1L21.172,2.28A3.636,3.636,0,0,1,26.079,5.678Z" transform="translate(-2.5 -2.049)" fill="#fff"/>
        <path id="Path_10918" data-name="Path 10918" d="M34.919,17.678h3.857V14.929A7.2,7.2,0,0,0,31.6,7.75H9.679A7.2,7.2,0,0,0,2.5,14.929V21.9a8.5,8.5,0,0,1,5.728-2.215,8.592,8.592,0,0,1,8.592,8.592,8.36,8.36,0,0,1-.5,2.864,8.7,8.7,0,0,1-2.673,3.819H31.6a7.2,7.2,0,0,0,7.179-7.179V25.506H35.148a4.071,4.071,0,0,1-4.124-3.57,3.934,3.934,0,0,1,3.895-4.258Z" transform="translate(-2.5 3.134)" fill="none" stroke="#707070" stroke-width="1.5"/>
        <path id="Path_10921" data-name="Path 10921" d="M27.224,14.9v3.933a1.96,1.96,0,0,1-1.909,1.947H21.573a4.071,4.071,0,0,1-4.124-3.57,3.934,3.934,0,0,1,3.895-4.258h3.971A1.96,1.96,0,0,1,27.224,14.9Z" transform="translate(11.077 7.862)" fill="#fff"/>
        <path id="Path_10922" data-name="Path 10922" d="M21.047,14.114H7.682a1.432,1.432,0,1,1,0-2.864H21.047a1.432,1.432,0,0,1,0,2.864Z" transform="translate(0.91 6.316)" fill="#fff"/>
        <path id="Path_10924" data-name="Path 10924" d="M18.318,20.759a.927.927,0,0,1,0,1.3.918.918,0,0,1-1.3,0l-2.436-2.436a.927.927,0,0,1,0-1.3l2.436-2.436a.916.916,0,0,1,1.3,1.3L16.53,18.971ZM24.4,19.618l-2.436,2.436a.918.918,0,0,1-1.3,0,.927.927,0,0,1,0-1.3l1.789-1.789L20.67,17.182a.916.916,0,0,1,1.3-1.3L24.4,18.323A.927.927,0,0,1,24.4,19.618Z" transform="translate(-13.767 12.436)" fill="#fff" stroke="#292d32" stroke-width="0.5"/>
      </g>
      <path id="Path_10919" data-name="Path 10919" d="M9.592,14a8.5,8.5,0,0,0-5.728,2.215,7.823,7.823,0,0,0-.955.993A8.455,8.455,0,0,0,1,22.592a8.608,8.608,0,0,0,14.014,6.682,8.7,8.7,0,0,0,2.673-3.819,8.36,8.36,0,0,0,.5-2.864A8.592,8.592,0,0,0,9.592,14Z" transform="translate(369 3872.817)" fill="#fff"/>
      <path id="Path_10923" data-name="Path 10923" d="M18.318,20.759a.927.927,0,0,1,0,1.3.918.918,0,0,1-1.3,0l-2.436-2.436a.927.927,0,0,1,0-1.3l2.436-2.436a.916.916,0,0,1,1.3,1.3L16.53,18.971ZM24.4,19.618l-2.436,2.436a.918.918,0,0,1-1.3,0,.927.927,0,0,1,0-1.3l1.789-1.789L20.67,17.182a.916.916,0,0,1,1.3-1.3L24.4,18.323A.927.927,0,0,1,24.4,19.618Z" transform="translate(359.098 3876.436)" fill="#707070" stroke="#fff" stroke-width="0.5"/>
    </g>
  </g>
</svg>
