<svg xmlns="http://www.w3.org/2000/svg" width="74" height="74" viewBox="0 0 74 74">
  <g id="Group_1280" data-name="Group 1280" transform="translate(-1008 -2038)">
    <circle id="Ellipse_109" data-name="Ellipse 109" cx="37" cy="37" r="37" transform="translate(1008 2038)" fill="#222325"/>
    <g id="Group_769" data-name="Group 769" transform="translate(38.293 31.6)">
      <g id="Group_467" data-name="Group 467" transform="translate(990.707 2025.4)">
        <path id="Path_34" data-name="Path 34" d="M19.926,1.75a9.715,9.715,0,1,0,9.715,9.715A9.718,9.718,0,0,0,19.926,1.75Z" transform="translate(2.757 -1.75)" fill="none" stroke="#7e7e7f" stroke-width="1.5"/>
        <path id="Path_35" data-name="Path 35" d="M9.042,13.03a6.013,6.013,0,1,0,6.013,6.013A6.023,6.023,0,0,0,9.042,13.03Z" transform="translate(-3.029 7.339)" fill="#fff"/>
        <path id="Path_36" data-name="Path 36" d="M18.885,16.62a5.074,5.074,0,1,0,5.074,5.074A5.079,5.079,0,0,0,18.885,16.62Z" transform="translate(5.658 10.232)" fill="#fff"/>
      </g>
    </g>
  </g>
</svg>
