<svg xmlns="http://www.w3.org/2000/svg" width="74" height="74" viewBox="0 0 74 74">
  <g id="Group_1277" data-name="Group 1277" transform="translate(-1008 -2248)">
    <circle id="Ellipse_109" data-name="Ellipse 109" cx="37" cy="37" r="37" transform="translate(1008 2248)" fill="#222325"/>
    <g id="Group_777" data-name="Group 777" transform="translate(-294 -1167.008)">
      <g id="Metaverse" transform="translate(1320 3443.008)">
        <g id="Icon" transform="translate(0 0)">
          <path id="Path_46" data-name="Path 46" d="M31.778,11.421A4.669,4.669,0,0,0,27.107,6.75H8.421A4.669,4.669,0,0,0,3.75,11.421v8.493a4.669,4.669,0,0,0,4.671,4.671h2.832a2.978,2.978,0,0,0,1.784-.595l2.49-1.869a.433.433,0,0,1,.255-.085h3.965a.433.433,0,0,1,.255.085l2.49,1.869a2.978,2.978,0,0,0,1.784.595h2.832a4.669,4.669,0,0,0,4.671-4.671Z" transform="translate(1.497 -6.75)" fill="none" stroke="#707070" stroke-width="1.5"/>
          <path id="Path_47" data-name="Path 47" d="M4,8.561l-.36.073a2.972,2.972,0,0,0-2.39,2.915v5.708a2.972,2.972,0,0,0,2.39,2.915l.36.073a6.425,6.425,0,0,1-.2-1.6V10.156a6.425,6.425,0,0,1,.2-1.6Z" transform="translate(-1.25 -5.485)" fill="#fff"/>
          <path id="Path_48" data-name="Path 48" d="M21.131,8.561a6.425,6.425,0,0,1,.2,1.6V18.65a6.425,6.425,0,0,1-.2,1.6l.36-.073a2.972,2.972,0,0,0,2.39-2.915V11.549a2.972,2.972,0,0,0-2.39-2.915Z" transform="translate(14.641 -5.485)" fill="#fff"/>
          <path id="Path_49" data-name="Path 49" d="M15.783,16.1h8.886a2.222,2.222,0,1,0,0-4.443H15.783a2.222,2.222,0,1,0,0,4.443Z" transform="translate(-0.965 -7.507)" fill="#fff"/>
        </g>
      </g>
    </g>
  </g>
</svg>
