<svg xmlns="http://www.w3.org/2000/svg" width="41.332" height="41.332" viewBox="0 0 41.332 41.332">
  <g id="Frame" style="isolation: isolate">
    <g id="Group" transform="translate(0 0)">
      <path id="Vector" d="M1.291,0A.778.778,0,0,0,.775.128,1.128,1.128,0,0,0,0,1.291v9.041c0,5.813,5.812,11.625,11.625,11.625H15.5V13.691L2.194.388A1.166,1.166,0,0,0,1.291,0Z" transform="translate(0 19.375)" fill="#fff"/>
      <path id="Vector-2" data-name="Vector" d="M32.543,19.5a.778.778,0,0,0-.516-.128,1.166,1.166,0,0,0-.9.387L15.236,35.65V22.991C31.9,20.537,22.858.775,22.858.775A1.312,1.312,0,0,0,21.693,0,1.241,1.241,0,0,0,20.53.9L17.171,6.844,13.812.9A1.2,1.2,0,0,0,11.49.9L8.13,6.844,4.771.9A1.238,1.238,0,0,0,3.611,0,1.241,1.241,0,0,0,2.449.9S-6.592,20.666,10.07,23.119l0,18.212H21.693c5.812,0,11.625-5.812,11.625-11.625V20.666a1.128,1.128,0,0,0-.775-1.163Z" transform="translate(8.014 0)" fill="#222325"/>
    </g>
  </g>
</svg>
