<svg xmlns="http://www.w3.org/2000/svg" width="74" height="74" viewBox="0 0 74 74">
  <g id="Group_1280" data-name="Group 1280" transform="translate(-368 -2458)">
    <circle id="Ellipse_109" data-name="Ellipse 109" cx="37" cy="37" r="37" transform="translate(368 2458)" fill="#222325"/>
    <g id="Group_775" data-name="Group 775" transform="translate(383.75 2473.75)">
      <path id="Path_10942" data-name="Path 10942" d="M15.642,30.054a1.388,1.388,0,0,1-1.19-2.1L16.4,24.7a1.4,1.4,0,1,1,2.4,1.432l-.5.837a11.661,11.661,0,0,0,8.981-11.323,1.395,1.395,0,0,1,2.789,0A14.462,14.462,0,0,1,15.642,30.054Z" transform="translate(11.175 11.171)" fill="#fff" opacity="0.4"/>
      <path id="Path_10943" data-name="Path 10943" d="M2.645,17.054A1.4,1.4,0,0,1,1.25,15.66,14.434,14.434,0,0,1,15.66,1.25a1.388,1.388,0,0,1,1.19,2.1L14.9,6.6a1.4,1.4,0,1,1-2.4-1.432l.5-.837A11.661,11.661,0,0,0,4.02,15.66,1.377,1.377,0,0,1,2.645,17.054Z" transform="translate(0 0)" fill="#fff" opacity="0.4"/>
      <path id="Path_10944" data-name="Path 10944" d="M17.3,15.418l-5.838-3.142a2.06,2.06,0,0,0-1.971,0L3.649,15.418a1.373,1.373,0,0,0,0,2.38L9.487,20.94a2.13,2.13,0,0,0,1.971,0L17.3,17.8a1.331,1.331,0,0,0,.688-1.19A1.391,1.391,0,0,0,17.3,15.418Z" transform="translate(1.47 9.259)" fill="#fff"/>
      <path id="Path_10945" data-name="Path 10945" d="M9.353,18.73,3.924,16.015a1.352,1.352,0,0,0-1.3.056A1.334,1.334,0,0,0,1.99,17.2v5.132a2.289,2.289,0,0,0,1.283,2.082L8.7,27.134a1.342,1.342,0,0,0,.595.149,1.409,1.409,0,0,0,.707-.2,1.334,1.334,0,0,0,.632-1.134V20.812A2.258,2.258,0,0,0,9.353,18.73Z" transform="translate(0.636 12.567)" fill="#fff"/>
      <path id="Path_10946" data-name="Path 10946" d="M15.363,16.071a1.348,1.348,0,0,0-1.3-.056L8.633,18.73A2.289,2.289,0,0,0,7.35,20.812v5.132a1.334,1.334,0,0,0,.632,1.134,1.409,1.409,0,0,0,.707.2,1.342,1.342,0,0,0,.595-.149l5.429-2.715A2.289,2.289,0,0,0,16,22.337V17.2A1.334,1.334,0,0,0,15.363,16.071Z" transform="translate(5.242 12.567)" fill="#fff"/>
      <path id="Path_10947" data-name="Path 10947" d="M27.3,5.4,21.458,2.256a2.06,2.06,0,0,0-1.971,0L13.649,5.4a1.373,1.373,0,0,0,0,2.38l5.838,3.142a2.13,2.13,0,0,0,1.971,0L27.3,7.778a1.331,1.331,0,0,0,.688-1.19A1.345,1.345,0,0,0,27.3,5.4Z" transform="translate(10.064 0.649)" fill="#fff"/>
      <path id="Path_10948" data-name="Path 10948" d="M19.353,8.7,13.924,5.985a1.352,1.352,0,0,0-1.3.056,1.334,1.334,0,0,0-.632,1.134v5.132a2.29,2.29,0,0,0,1.283,2.083L18.7,17.1a1.341,1.341,0,0,0,.595.149,1.409,1.409,0,0,0,.707-.2,1.334,1.334,0,0,0,.632-1.134V10.782A2.258,2.258,0,0,0,19.353,8.7Z" transform="translate(9.229 3.948)" fill="#fff"/>
      <path id="Path_10949" data-name="Path 10949" d="M25.363,6.041a1.348,1.348,0,0,0-1.3-.056L18.633,8.7a2.289,2.289,0,0,0-1.283,2.082v5.132a1.334,1.334,0,0,0,.632,1.134,1.409,1.409,0,0,0,.707.2,1.341,1.341,0,0,0,.595-.149l5.429-2.715A2.29,2.29,0,0,0,26,12.307V7.175A1.334,1.334,0,0,0,25.363,6.041Z" transform="translate(13.835 3.948)" fill="#fff"/>
    </g>
  </g>
</svg>
