<svg xmlns="http://www.w3.org/2000/svg" width="74" height="74" viewBox="0 0 74 74">
  <g id="Group_1280" data-name="Group 1280" transform="translate(-1008 -2458)">
    <circle id="Ellipse_109" data-name="Ellipse 109" cx="37" cy="37" r="37" transform="translate(1008 2458)" fill="#222325"/>
    <g id="Group_773" data-name="Group 773" transform="translate(1022.99 2472.67)">
      <path id="Path_10930" data-name="Path 10930" d="M30.367,2.33H13.629C6.349,2.33,2.01,6.67,2.01,13.949V30.687c0,7.279,4.34,11.619,11.619,11.619H30.367c7.279,0,11.619-4.34,11.619-11.619V13.969C41.986,6.69,37.646,2.33,30.367,2.33Z" transform="translate(0)" fill="none" stroke="#7e7e7f" stroke-width="1.5"/>
      <path id="Path_10931" data-name="Path 10931" d="M25.628,10.4l-7.519-4.06a2.717,2.717,0,0,0-2.54,0L8.05,10.4a1.787,1.787,0,0,0,0,3.08l7.519,4.06a2.72,2.72,0,0,0,2.56,0l7.519-4.06a1.74,1.74,0,0,0,.88-1.54A1.8,1.8,0,0,0,25.628,10.4Z" transform="translate(5.159 3.692)" fill="#fff"/>
      <path id="Path_10932" data-name="Path 10932" d="M15.489,14.309l-7-3.5a1.733,1.733,0,0,0-1.68.08,1.693,1.693,0,0,0-.82,1.46v6.619a2.977,2.977,0,0,0,1.66,2.68l7,3.5a1.719,1.719,0,0,0,.78.18,1.624,1.624,0,0,0,.9-.26,1.694,1.694,0,0,0,.82-1.46V16.989A2.963,2.963,0,0,0,15.489,14.309Z" transform="translate(3.98 8.299)" fill="#fff"/>
      <path id="Path_10933" data-name="Path 10933" d="M22.759,10.889a1.734,1.734,0,0,0-1.68-.08l-7,3.5a3,3,0,0,0-1.66,2.68v6.619a1.693,1.693,0,0,0,.82,1.46,1.624,1.624,0,0,0,.9.26,1.847,1.847,0,0,0,.78-.18l7-3.5a3,3,0,0,0,1.66-2.68V12.349A1.693,1.693,0,0,0,22.759,10.889Z" transform="translate(10.408 8.299)" fill="#fff"/>
    </g>
  </g>
</svg>
