<svg xmlns="http://www.w3.org/2000/svg" width="74" height="74" viewBox="0 0 74 74">
  <g id="Group_1280" data-name="Group 1280" transform="translate(-1008 -2668)">
    <circle id="Ellipse_109" data-name="Ellipse 109" cx="37" cy="37" r="37" transform="translate(1008 2668)" fill="#222325"/>
    <g id="Group_763" data-name="Group 763" transform="translate(1024.75 2684.78)">
      <path id="Path_10753" data-name="Path 10753" d="M28.433,15.22A1.276,1.276,0,0,1,29.709,16.5,13.175,13.175,0,0,1,16.526,29.679a1.276,1.276,0,0,1-1.094-1.932l1.786-2.977a1.276,1.276,0,0,1,2.188,1.313l-.462.769A10.625,10.625,0,0,0,27.158,16.5,1.276,1.276,0,0,1,28.433,15.22Z" transform="translate(10.516 10.516)" fill="#7e7e7f" fill-rule="evenodd"/>
      <path id="Path_10754" data-name="Path 10754" d="M11.015,3.047A10.625,10.625,0,0,0,2.8,13.4a1.276,1.276,0,0,1-2.552,0A13.175,13.175,0,0,1,13.434.22a1.276,1.276,0,0,1,1.094,1.932L12.741,5.129a1.276,1.276,0,1,1-2.188-1.313Z" transform="translate(0 0)" fill="#7e7e7f" fill-rule="evenodd"/>
      <path id="Exclusion_2" data-name="Exclusion 2" d="M10.495,20.993A10.492,10.492,0,0,1,0,10.5,10.492,10.492,0,0,1,10.495,0c.235,0,.468.015.673.028l.144.008A10.5,10.5,0,0,1,20.974,9.7c0,.126,0,.253.008.376s.009.271.009.424a10.493,10.493,0,0,1-10.5,10.5ZM6.99,5.377A1.292,1.292,0,0,0,5.715,6.652v7.656A1.277,1.277,0,0,0,6.99,15.584H8.775v.646a1.294,1.294,0,0,0,1.277,1.277,1.278,1.278,0,0,0,1.276-1.277v-.646h1.123a3.346,3.346,0,0,0,3.469-3.2,3.105,3.105,0,0,0-1.275-2.433,3.167,3.167,0,0,0,.324-1.377,3.282,3.282,0,0,0-3.2-3.2h-.443V4.73a1.276,1.276,0,0,0-2.552,0v.647Zm5.461,7.671h-4.2V11.773h4.186c.541,0,.918.341.918.647S13.007,13.048,12.451,13.048Zm-.68-3.827H8.265V7.928H11.77a.723.723,0,0,1,.646.647A.647.647,0,0,1,11.77,9.221Z" transform="translate(4.095 15.427)" fill="#fff"/>
      <path id="Path_10756" data-name="Path 10756" d="M30.152,13a10.491,10.491,0,0,1-10.5,10.5h-.834A10.5,10.5,0,0,0,9.16,13.829V13a10.5,10.5,0,0,1,20.992,0Z" transform="translate(6.247 1.599)" fill="#7e7e7f"/>
    </g>
  </g>
</svg>
