<svg xmlns="http://www.w3.org/2000/svg" width="74" height="74" viewBox="0 0 74 74">
  <g id="Group_1280" data-name="Group 1280" transform="translate(-368 -2248)">
    <circle id="Ellipse_109" data-name="Ellipse 109" cx="37" cy="37" r="37" transform="translate(368 2248)" fill="#222325"/>
    <path id="Path_33" data-name="Path 33" d="M11.2,38.565l13.913,7.872a4.394,4.394,0,0,0,4.3,0l13.913-7.872a4.332,4.332,0,0,0,2.2-3.764V19.2a4.331,4.331,0,0,0-2.2-3.764L29.411,7.562a4.386,4.386,0,0,0-4.3,0L11.2,15.435A4.33,4.33,0,0,0,9,19.2V34.8a4.331,4.331,0,0,0,2.2,3.764Z" transform="translate(378 2258.001)" fill="none" stroke="#7e7e7f" stroke-width="1.5"/>
    <g id="NFT" transform="translate(395.962 2274.816)">
      <path id="Path_33-2" data-name="Path 33" d="M10.12,23.073,17.2,27.082a2.237,2.237,0,0,0,2.189,0l7.085-4.009A2.206,2.206,0,0,0,27.6,21.157V13.211a2.206,2.206,0,0,0-1.119-1.917L19.393,7.285a2.233,2.233,0,0,0-2.189,0L10.12,11.295A2.205,2.205,0,0,0,9,13.211v7.945a2.206,2.206,0,0,0,1.12,1.916Z" transform="translate(-9 -6.999)" fill="#fff"/>
    </g>
    <path id="Path_10925" data-name="Path 10925" d="M18.205,20.614a.9.9,0,0,1,0,1.259.892.892,0,0,1-1.259,0l-2.367-2.367a.9.9,0,0,1,0-1.259l2.367-2.367a.89.89,0,0,1,1.259,1.259l-1.738,1.738Zm5.912-1.108L21.75,21.873a.892.892,0,0,1-1.259,0,.9.9,0,0,1,0-1.259l1.738-1.738-1.738-1.738a.89.89,0,0,1,1.259-1.259l2.367,2.367A.9.9,0,0,1,24.117,19.505Z" transform="translate(385.913 2266.122)" fill="#7e7e7f" stroke="#fff" stroke-width="0.5"/>
  </g>
</svg>
