<svg xmlns="http://www.w3.org/2000/svg" width="74" height="74" viewBox="0 0 74 74">
  <g id="Group_1280" data-name="Group 1280" transform="translate(-368 -2668)">
    <circle id="Ellipse_109" data-name="Ellipse 109" cx="37" cy="37" r="37" transform="translate(368 2668)" fill="#222325"/>
    <g id="Group_772" data-name="Group 772" transform="translate(385 2683)">
      <path id="Path_10926" data-name="Path 10926" d="M35.981,12.245V31.733c0,6-3.578,8-8,8H12c-4.417,0-8-2-8-8V12.245c0-6.5,3.578-8,8-8a4.5,4.5,0,0,0,4.5,4.5h7a4.5,4.5,0,0,0,4.5-4.5C32.4,4.25,35.981,5.749,35.981,12.245Z" transform="translate(0 2.247)" fill="none" stroke="#7e7e7f" stroke-width="1.5"/>
      <path id="Path_10927" data-name="Path 10927" d="M23.99,6.5a4.5,4.5,0,0,1-4.5,4.5h-7A4.5,4.5,0,0,1,12.5,2h7a4.5,4.5,0,0,1,4.5,4.5Z" transform="translate(3.995)" fill="#fff"/>
      <path id="Path_10928" data-name="Path 10928" d="M16.744,15.248h-8a1.5,1.5,0,1,1,0-3h8a1.5,1.5,0,1,1,0,3Z" transform="translate(3.246 10.238)" fill="#fff"/>
      <path id="Path_10929" data-name="Path 10929" d="M24.739,19.248H8.749a1.5,1.5,0,1,1,0-3h15.99a1.5,1.5,0,1,1,0,3Z" transform="translate(3.246 14.233)" fill="#fff"/>
    </g>
  </g>
</svg>
