<svg xmlns="http://www.w3.org/2000/svg" width="74" height="74" viewBox="0 0 74 74">
  <g id="Group_1280" data-name="Group 1280" transform="translate(-1008 -2878)">
    <circle id="Ellipse_109" data-name="Ellipse 109" cx="37" cy="37" r="37" transform="translate(1008 2878)" fill="#222325"/>
    <g id="Group_780" data-name="Group 780" transform="translate(338 -969)">
      <g id="Path_10744" data-name="Path 10744" transform="translate(687 3864)" fill="none">
        <path d="M20,0A20,20,0,1,1,0,20,20,20,0,0,1,20,0Z" stroke="none"/>
        <path d="M 19.99995613098145 1.499996185302734 C 15.05843544006348 1.499996185302734 10.41269683837891 3.424327850341797 6.918506622314453 6.918506622314453 C 3.424327850341797 10.41269683837891 1.499996185302734 15.05843544006348 1.499996185302734 19.99995613098145 C 1.499996185302734 24.94147491455078 3.424327850341797 29.58721542358398 6.918506622314453 33.08140563964844 C 10.41269683837891 36.57558441162109 15.05843544006348 38.49991607666016 19.99995613098145 38.49991607666016 C 24.94147491455078 38.49991607666016 29.58721542358398 36.57558441162109 33.08140563964844 33.08140563964844 C 36.57558441162109 29.58721542358398 38.49991607666016 24.94147491455078 38.49991607666016 19.99995613098145 C 38.49991607666016 15.05843544006348 36.57558441162109 10.41269683837891 33.08140563964844 6.918506622314453 C 29.58721542358398 3.424327850341797 24.94147491455078 1.499996185302734 19.99995613098145 1.499996185302734 M 19.99995613098145 -3.814697265625e-06 C 31.04562568664551 -3.814697265625e-06 39.99991607666016 8.954286575317383 39.99991607666016 19.99995613098145 C 39.99991607666016 31.04562568664551 31.04562568664551 39.99991607666016 19.99995613098145 39.99991607666016 C 8.954286575317383 39.99991607666016 -3.814697265625e-06 31.04562568664551 -3.814697265625e-06 19.99995613098145 C -3.814697265625e-06 8.954286575317383 8.954286575317383 -3.814697265625e-06 19.99995613098145 -3.814697265625e-06 Z" stroke="none" fill="#7e7e7f"/>
      </g>
      <circle id="Ellipse_95" data-name="Ellipse 95" cx="10.399" cy="10.399" r="10.399" transform="translate(696.601 3873.601)" fill="#fff"/>
    </g>
  </g>
</svg>
