<svg xmlns="http://www.w3.org/2000/svg" xmlns:xlink="http://www.w3.org/1999/xlink" width="151.592" height="40" viewBox="0 0 151.592 40">
  <defs>
    <clipPath id="clip-path">
      <rect id="Rectangle_173" data-name="Rectangle 173" width="102.824" height="12.901" fill="none"/>
    </clipPath>
  </defs>
  <g id="Group_1300" data-name="Group 1300" transform="translate(-1073 -898)">
    <path id="Path_131" data-name="Path 131" d="M38.624,1.02a9.118,9.118,0,0,1-1.177.488,8.151,8.151,0,0,0-1.513.7c-.418.331-.427.333,2.152-.544,1.671-.569,2.037-.65,2.556-.57l.605.094-.4.167c-.222.092-1.766.68-3.43,1.308-2.654,1-3.768,1.509-3.273,1.509.081,0,1.978-.632,4.216-1.406,3.29-1.134,4.157-1.39,4.528-1.32.253.047.436.109.407.139s-2.336.916-5.127,1.971c-4.619,1.745-5.49,2.117-5.315,2.268.032.027,2.631-.846,5.775-1.939,4.746-1.651,5.784-1.971,6.117-1.88.366.1.247.167-1.412.791L36.808,5.252c-2.589.973-4.764,1.821-4.834,1.883s-.093.147-.054.186,3.2-1.012,7.026-2.336,7.066-2.408,7.194-2.408c.711,0,.128.292-2.7,1.358L35.772,6.815A45.1,45.1,0,0,0,31.163,8.7c-.094.235-.791.46,7.6-2.456C48,3.036,47.61,3.162,47.767,3.319c.087.087-.7.436-2.252,1.019C36.96,7.523,30.86,9.856,30.7,10.008c-.106.1-.167.2-.134.222s4.173-1.381,9.2-3.126,9.2-3.14,9.265-3.1c.187.115.068.164-5.029,2.082-12.226,4.6-13.848,5.234-13.848,5.376,0,.087,4.3-1.332,9.987-3.3,5.5-1.9,10-3.454,10.02-3.454s.034.051.034.115-.257.211-.571.329c-5.355,2-19.423,7.342-19.644,7.46-1.085.577,1.232-.167,10.413-3.344C46.115,7.294,50.9,5.631,51.033,5.58s.236-.037.236.031A44.549,44.549,0,0,1,47.132,7.28c-17.12,6.428-17.7,6.653-17.51,6.834.06.058.895-.226,14.311-4.874C48.37,7.7,52.056,6.448,52.127,6.448c.385,0,.953-.22-13.367,5.171-4.994,1.88-9.136,3.469-9.206,3.531s-.094.144-.056.182,3.212-1.018,7.053-2.347c14.448-5,16.533-5.713,16.585-5.66.03.03-.031.087-.133.124-12.062,4.536-23.581,8.9-23.632,8.952a.108.108,0,0,0,.013.151c.045.045,5.573-1.819,12.284-4.143s12.22-4.2,12.246-4.177a3.517,3.517,0,0,1-.863.386c-.5.186-5.086,1.919-10.191,3.843s-10.206,3.855-11.345,4.282-2.1.811-2.141.853c-.222.222.174.2.867-.036,7.008-2.442,23.312-8.085,23.513-8.139.888-.24-.585.344-6.523,2.582-15.54,5.858-17.669,6.679-17.721,6.838A14.676,14.676,0,0,0,32.389,18c1.616-.557,4.48-1.545,6.368-2.193s6.211-2.145,9.609-3.325,6.2-2.127,6.221-2.1-1.093.468-2.48.989c-9.226,3.463-22.419,8.461-22.477,8.518-.4.4.633.053,22.834-7.636,1.14-.4,2.094-.7,2.116-.675s-5.51,2.134-12.3,4.69S29.9,20.954,29.835,21.013s-.062.133,0,.166,3.9-1.25,8.521-2.858c14.132-4.9,15.777-5.463,15.826-5.414.026.026-2.691,1.081-6.04,2.342L36.074,19.8c-3.29,1.24-6,2.321-6.03,2.4s-.018.147.02.147,3.175-1.077,6.972-2.394c13.908-4.825,18.182-6.288,18.226-6.243a12.714,12.714,0,0,1-1.6.655c-.907.336-4.464,1.675-7.9,2.975S37.476,20.468,35,21.4a46.87,46.87,0,0,0-4.551,1.855c-.031.092.024.138.124.1,1.554-.529,11.523-3.967,17.045-5.878,3.95-1.367,7.2-2.465,7.227-2.442s-1.724.715-3.886,1.534c-12.4,4.7-19.907,7.513-20.015,7.513-.068,0-.124.087-.124.2,0,.154.277.1,1.308-.262,18.375-6.363,23.762-8.211,23.8-8.17a11.39,11.39,0,0,1-1.6.659c-1.356.5-13.325,5.007-21.258,8.008a9.907,9.907,0,0,0-1.849.816c0,.064.16.076.354.027s5.988-2.037,12.873-4.419,12.536-4.313,12.561-4.292-1.247.523-2.818,1.107c-12.918,4.833-22.555,8.531-22.46,8.629a2.333,2.333,0,0,0,1.047-.208c.514-.174,6.074-2.1,12.357-4.274,10.743-3.718,13.761-4.711,9.794-3.228-.943.349-2.229.84-2.858,1.083s-3.323,1.26-5.986,2.263c-9.944,3.742-13.722,5.174-13.776,5.225-.031.029-.017.092.031.139.087.087.4-.016,15.822-5.352,5.211-1.8,9.493-3.261,9.514-3.239s-2.006.81-4.5,1.751c-3.8,1.431-19.032,7.185-20.048,7.571-.574.218-.174.379.415.167.312-.113,5.834-2.027,12.27-4.256s11.877-4.119,12.09-4.2a.93.93,0,0,1,.436-.1c.045.045-3.526,1.4-19.119,7.279-3.033,1.143-5.536,2.094-5.562,2.114s-.026.087,0,.159A35.135,35.135,0,0,0,37.748,28l12.3-4.26c4.542-1.57,8.325-2.858,8.407-2.855.14,0-2.391.969-17.74,6.762-3.4,1.284-6.245,2.392-6.315,2.461s-.049.126.087.126c.118,0,4.654-1.539,10.081-3.419,13.685-4.741,13.97-4.838,13.968-4.746,0,.044-3.345,1.338-7.431,2.873s-9.351,3.516-11.7,4.4a33.3,33.3,0,0,0-4.157,1.724c.064.064,5.2-1.646,11.529-3.838,6.281-2.173,11.471-3.931,11.542-3.908s-2.075.872-4.768,1.889-5.9,2.226-7.115,2.69-4,1.512-6.179,2.329c-4.315,1.62-4.212,1.576-4.116,1.728.036.058,4.985-1.6,11-3.68s10.991-3.787,11.06-3.788c.4-.011-.492.369-3.693,1.57-1.96.739-6.349,2.395-9.752,3.68s-6.542,2.47-6.979,2.631c-.514.191-.73.33-.618.4a1.233,1.233,0,0,0,.722-.093c.444-.16,13.139-4.566,18.811-6.528a4.012,4.012,0,0,1,1.308-.337c0,.141,1.011-.249-13.72,5.309-3.218,1.214-5.941,2.26-6.053,2.324-.837.481,1.419-.225,7.973-2.5,4.159-1.441,8.319-2.879,9.247-3.194s1.787-.616,1.919-.667c.354-.14.289.186-.067.336-.307.129-11.679,4.417-15.67,5.907-1.919.718-2.576,1.054-2.018,1.035.092,0,4.042-1.349,8.776-2.989,7.314-2.535,9.042-3.071,8.646-2.675-.059.059-2.834,1.112-11.336,4.3-2.663,1-4.9,1.866-4.972,1.928-.416.365,1.328-.181,8.131-2.546,4.18-1.453,7.616-2.631,7.636-2.617.289.2-1.032.774-7.173,3.086-3.879,1.461-7.054,2.7-7.054,2.757,0,.2.436.074,4.248-1.247,9.717-3.368,9.2-3.2,9.054-2.885-.106.232-1.281.723-5.757,2.408-3.091,1.164-5.706,2.169-5.811,2.236-.146.087-.117.12.12.122.254,0,9.288-3.031,10.353-3.475.268-.112.29-.1.181.106-.256.476-.707.686-4.684,2.181-5.068,1.9-5.283,2.279-.311.544,1.929-.673,3.576-1.221,3.664-1.221s-.041.2-.284.452a7.055,7.055,0,0,1-2.481,1.221c-1.122.42-2.087.808-2.143.86-.237.217.872,0,1.919-.383a6.106,6.106,0,0,1,1.175-.357c.028.028-.209.262-.523.516a21.2,21.2,0,0,1-8.921,4.058,27.216,27.216,0,0,1-7.393,0,20.46,20.46,0,0,1-13.172-8.7A21.633,21.633,0,0,1,18.5,24.682a26.456,26.456,0,0,1,0-7.339A20.211,20.211,0,0,1,36.137,1.064a16.465,16.465,0,0,1,2.488-.044Z" transform="translate(1054.759 897.008)" fill="#fff" fill-rule="evenodd"/>
    <g id="Group_459" data-name="Group 459" transform="translate(1121.768 911.55)" clip-path="url(#clip-path)">
      <path id="Path_230" data-name="Path 230" d="M875.458,7.232l7.514,5.585-.038.083c-.2-.081-.4-.168-.6-.243-2.672-.985-5.33-2.008-8.02-2.937-1.618-.559-3.3-.76-4.78.374a28.5,28.5,0,0,0-2.255,2.1,5.4,5.4,0,0,0-.389.477V.352c.707-.071,1.4-.156,2.092-.207A21.882,21.882,0,0,1,876.389.5c2.517.68,3.052,1.921,2.19,4.463a3.457,3.457,0,0,1-3.121,2.268" transform="translate(-780.148 0)" fill="#fff"/>
      <path id="Path_231" data-name="Path 231" d="M164.315,5.44c.2.43.4.863.611,1.291a8.49,8.49,0,0,0,7.683,5.046,15.438,15.438,0,0,0,4.925-.254,9.311,9.311,0,0,0,5.952-5.048,4.955,4.955,0,0,0,.174-.568c.068-.188.158-.369.238-.553l.126.02a.984.984,0,0,1,.1.294,13.54,13.54,0,0,1-1.75,7.687,8.455,8.455,0,0,1-7.066,4.066c-.665.035-1.334.014-2,.01a8.734,8.734,0,0,1-5.872-2.172,9.5,9.5,0,0,1-3-5.846c-.2-1.293-.208-2.617-.3-3.927l.179-.046" transform="translate(-147.712 -4.818)" fill="#fff"/>
      <path id="Path_232" data-name="Path 232" d="M421.795,15.888c-.135-4.024-.156-8.048.064-12.237.457.373.785.642,1.114.909a18.307,18.307,0,0,0,6.76,3.662,9.177,9.177,0,0,0,4.111.272,6.51,6.51,0,0,0,4.478-3.3,3.375,3.375,0,0,0,.226-.758,1.235,1.235,0,0,1,.266-.523,105.947,105.947,0,0,1,.113,12.167c-.345-.269-.582-.433-.8-.623a18.11,18.11,0,0,0-6.693-3.888,10.8,10.8,0,0,0-5.251-.171,5.037,5.037,0,0,0-3.778,3.517c-.129.347-.279.685-.42,1.028l-.2-.053" transform="translate(-379.498 -3.286)" fill="#fff"/>
      <path id="Path_233" data-name="Path 233" d="M15.863,18.984H0c.052-4,.1-7.96.156-11.916l.089-.021a2.167,2.167,0,0,1,.149.269A16.668,16.668,0,0,0,9.987,16.95c1.668.7,3.439,1.145,5.163,1.7.235.076.473.143.709.215l0,.115" transform="translate(0 -6.342)" fill="#fff"/>
      <path id="Path_234" data-name="Path 234" d="M644.65,6.157l9.133,11.855-.121.129-1.174-.779-4.614-3.069c-.055-.037-.118-.061-.176-.1a5.8,5.8,0,0,0-6.3-.04c-1.472.872-2.877,1.858-4.3,2.811-.569.382-1.105.813-1.657,1.221l-.167-.167,9.1-11.86.275,0" transform="translate(-571.707 -5.541)" fill="#fff"/>
    </g>
  </g>
</svg>
