<svg xmlns="http://www.w3.org/2000/svg" xmlns:xlink="http://www.w3.org/1999/xlink" width="188.259" height="40" viewBox="0 0 188.259 40">
  <defs>
    <clipPath id="clip-path">
      <rect id="Rectangle_17" data-name="Rectangle 17" width="42.562" height="40" fill="#fff"/>
    </clipPath>
  </defs>
  <g id="Group_77" data-name="Group 77" transform="translate(-270 -42.041)">
    <g id="Group_17" data-name="Group 17" transform="translate(270 42.041)" clip-path="url(#clip-path)">
      <path id="Path_10" data-name="Path 10" d="M201.112,26.568v15.2c0,.265-.036.291-.3.208l-1.691-.548c-.7-.227-1.39-.456-2.088-.678a.323.323,0,0,1-.248-.242c-.249-.887-.5-1.779-.762-2.668-.269-.936-.542-1.873-.811-2.807-.226-.783-.445-1.567-.671-2.35-.347-1.2-.7-2.4-1.044-3.6-.252-.876-.493-1.754-.747-2.63q-.514-1.792-1.037-3.583c-.256-.887-.5-1.781-.759-2.671-.366-1.267-.737-2.534-1.1-3.8q-.634-2.189-1.262-4.38a.979.979,0,0,1-.029-.266q0-4.713,0-9.426a1.166,1.166,0,0,1,.04-.216.894.894,0,0,1,.218.083l7.6,5.519,4.4,3.185a.613.613,0,0,1,.3.561q-.014,7.557-.007,15.114" transform="translate(-180.731 -2.016)" fill="#fff"/>
      <path id="Path_11" data-name="Path 11" d="M546.648,0c.006.133.014.214.014.3,0,3.135.009,6.27-.011,9.406a4.463,4.463,0,0,1-.25,1.125c-.241.863-.5,1.723-.747,2.584q-.382,1.322-.762,2.643c-.3,1.021-.582,2.044-.876,3.065-.306,1.061-.617,2.118-.922,3.179q-.519,1.811-1.032,3.624c-.4,1.405-.814,2.808-1.218,4.214q-.641,2.227-1.274,4.457c-.367,1.281-.738,2.563-1.1,3.839a.394.394,0,0,1-.288.288q-1.873.6-3.745,1.212c-.256.084-.3.062-.3-.2v-.249q0-15.012-.007-30.024a.682.682,0,0,1,.32-.63q4.717-3.4,9.422-6.826L546.458.133c.048-.035.1-.066.2-.127" transform="translate(-511.944 0.001)" fill="#fff"/>
      <path id="Path_12" data-name="Path 12" d="M709.2,303.747l6.556-22.911.105-.061a.853.853,0,0,0,.086.185q3.131,3.942,6.267,7.872a.361.361,0,0,1,.068.376c-.229.76-.436,1.526-.652,2.29-.227.8-.457,1.591-.683,2.387-.14.493-.28.986-.409,1.478a.874.874,0,0,1-.354.529c-1.4,1.007-2.8,2.028-4.2,3.044q-2.563,1.859-5.125,3.715l-1.41,1.022c-.058.042-.123.076-.184.114l-.071-.038" transform="translate(-679.744 -269.111)" fill="#fff"/>
      <path id="Path_13" data-name="Path 13" d="M13.06,305.642c-.087-.054-.162-.1-.231-.146l-6.542-4.75q-2.131-1.547-4.258-3.1a.625.625,0,0,1-.212-.311c-.371-1.287-.729-2.578-1.1-3.868q-.347-1.225-.706-2.447a.339.339,0,0,1,.072-.341q2.535-3.178,5.064-6.36l1.11-1.4c.068-.085.14-.167.209-.249.162.133,6.594,22.69,6.589,22.965" transform="translate(0.001 -270.934)" fill="#fff"/>
    </g>
    <path id="Path_2956" data-name="Path 2956" d="M6.269-47.738,6.237-70.191h5.669v22.453Zm4.435,0,.032-4.877,10.8.032.032,4.845Zm17.2.032L21.691-63.225h5.891l3.8,12.764H29.067L32.9-63.224H38.79L32.428-47.738Zm-3.673,6.524,4.592-10.1,3.61,3.548-2.661,6.555ZM47.6-47.392a9.382,9.382,0,0,1-4.45-1.045,7.978,7.978,0,0,1-3.119-2.882,7.705,7.705,0,0,1-1.14-4.148,7.688,7.688,0,0,1,1.156-4.18,8.215,8.215,0,0,1,3.135-2.9,9.335,9.335,0,0,1,4.482-1.061,8.712,8.712,0,0,1,3.294.6A8.4,8.4,0,0,1,53.679-61.2L50.2-57.714a3.108,3.108,0,0,0-1.093-.713,4,4,0,0,0-1.441-.238,3.237,3.237,0,0,0-1.6.394,3.055,3.055,0,0,0-1.14,1.093,3.148,3.148,0,0,0-.428,1.676,3.169,3.169,0,0,0,.428,1.663,3.145,3.145,0,0,0,1.14,1.125,3.138,3.138,0,0,0,1.6.412,3.686,3.686,0,0,0,1.52-.285,3.238,3.238,0,0,0,1.109-.823l3.516,3.487a9.034,9.034,0,0,1-2.8,1.9,8.7,8.7,0,0,1-3.405.635Zm14.251-.032a7.1,7.1,0,0,1-3.832-1.045,7.257,7.257,0,0,1-2.629-2.866,8.8,8.8,0,0,1-.95-4.133,8.969,8.969,0,0,1,.95-4.18,7.119,7.119,0,0,1,2.628-2.865,7.181,7.181,0,0,1,3.832-1.029,6.61,6.61,0,0,1,2.661.522,5.161,5.161,0,0,1,1.979,1.472,4.212,4.212,0,0,1,.934,2.154v7.786a4.15,4.15,0,0,1-.934,2.168,5.381,5.381,0,0,1-1.979,1.472,6.441,6.441,0,0,1-2.661.545Zm1.172-4.908a2.891,2.891,0,0,0,2.2-.887,3.183,3.183,0,0,0,.839-2.28,3.32,3.32,0,0,0-.38-1.615,2.892,2.892,0,0,0-1.061-1.109,2.97,2.97,0,0,0-1.568-.412,2.97,2.97,0,0,0-1.568.412,2.979,2.979,0,0,0-1.075,1.131,3.237,3.237,0,0,0-.394,1.6,3.412,3.412,0,0,0,.38,1.631,2.829,2.829,0,0,0,1.076,1.125,2.993,2.993,0,0,0,1.548.406Zm2.819,4.592v-4.148l.788-3.8-.788-3.737v-3.8h5.41v15.489Zm18.685,0v-8.74a2.257,2.257,0,0,0-.636-1.7,2.371,2.371,0,0,0-1.647-.65,2.251,2.251,0,0,0-1.172.3,2.152,2.152,0,0,0-.788.807A2.485,2.485,0,0,0,80-56.482L77.845-57.5a6.041,6.041,0,0,1,.823-3.214,5.618,5.618,0,0,1,2.267-2.09,6.969,6.969,0,0,1,3.247-.744,5.837,5.837,0,0,1,3.025.776,5.747,5.747,0,0,1,2.07,2.07,5.717,5.717,0,0,1,.76,2.945v10.016Zm-10.039,0V-63.224H80v15.486Z" transform="translate(314.382 120.365)" fill="#fff"/>
    <path id="Path_2957" data-name="Path 2957" d="M97.2-56.281v-2.6h5.986a4.888,4.888,0,0,0,2.217-.493,3.672,3.672,0,0,0,1.536-1.409A4.017,4.017,0,0,0,107.465-63a4.017,4.017,0,0,0-.522-2.217,3.672,3.672,0,0,0-1.536-1.409,4.888,4.888,0,0,0-2.217-.493H97.2v-2.6h6.176a7.807,7.807,0,0,1,3.626.823,6.2,6.2,0,0,1,2.517,2.344A6.725,6.725,0,0,1,110.443-63a6.36,6.36,0,0,1-.9,3.531,6.455,6.455,0,0,1-2.534,2.344,7.688,7.688,0,0,1-3.626.839Zm-1.995,8.55V-69.71h2.977v21.979Zm24.227.316a7.008,7.008,0,0,1-3.736-1.028,7.343,7.343,0,0,1-2.644-2.8,8.205,8.205,0,0,1-.966-3.991,8.205,8.205,0,0,1,.966-3.991,7.505,7.505,0,0,1,2.629-2.819,6.9,6.9,0,0,1,3.753-1.045,6.431,6.431,0,0,1,3.055.713,5.8,5.8,0,0,1,2.168,1.963,5.775,5.775,0,0,1,.919,2.9v4.529a5.914,5.914,0,0,1-.9,2.882,5.635,5.635,0,0,1-2.154,1.979,6.505,6.505,0,0,1-3.087.714Zm.475-2.692a4.383,4.383,0,0,0,3.42-1.441,5.3,5.3,0,0,0,1.3-3.689,5.913,5.913,0,0,0-.585-2.707,4.363,4.363,0,0,0-1.663-1.806,4.751,4.751,0,0,0-2.5-.65,4.745,4.745,0,0,0-2.517.665,4.658,4.658,0,0,0-1.71,1.821,5.525,5.525,0,0,0-.618,2.644,5.593,5.593,0,0,0,.618,2.676,4.623,4.623,0,0,0,1.726,1.821,4.829,4.829,0,0,0,2.533.665Zm4.529,2.375v-4.054l.538-3.673-.538-3.647v-3.673h2.882v15.047Zm11.971.127-6.524-15.17h3.167L137.9-50.9h-1.009l5.1-11.876h3.167l-7.03,15.17Zm-4.307,6.176,4.435-9.089,1.584,2.913-2.85,6.176Z" transform="translate(313.102 120.358)" fill="#fff"/>
  </g>
</svg>
