<svg id="Group_2" data-name="Group 2" xmlns="http://www.w3.org/2000/svg" width="224.876" height="40" viewBox="0 0 224.876 40">
  <path id="Path_3" data-name="Path 3" d="M294.791,201.488l-2.429,1.121,1.9-3.58-2.034-.309,3.38-2.125c-.45-2.911-1.494-6,.582-9.31l6.56,5.512-.335.466-2.888-1.2c3.384,5.547,14.859,6.745,20.228-.108l-3.17,1.3-.336-.442,6.508-5.533c2.147,3.236,1.12,6.265.627,9.309l3.442,2.147-2.079.252,1.849,3.566-2.31-1.007v4.155l-.423.269-.22-1.068-.406.307v2.64l-.743-.6c-2.567,1.739-3.187,4.461-3.762,7.333l-.66-1.668-.636,3.16-.229.02-.41-1.6-.533,1.97-.3.035-.766-5.387-.416.046c.229,2.238.5,4.474.662,6.717a4.407,4.407,0,0,1-.372,1.92c-1.046,2.527-2.156,5.027-3.22,7.486l-.313-1.253h-4.046l-.318,1.173c-1.158-2.526-2.449-5.282-3.667-8.069a3.09,3.09,0,0,1,.044-1.413c.219-2.083.452-4.164.681-6.246l-.478-.066-.687,5.053-.277,0-.7-2.009-.272,1.728-.2.008-.733-3.347-.683,2.187c-.962-3.021-.577-6.213-3.843-7.639l-.587.469V205.2l-.98.653Zm5.672,1.792-.2.229a34.51,34.51,0,0,0,2.861,3.073c.361.312,1.186.092,1.8.116-.241-.482-.355-1.159-.745-1.41C303,204.529,301.709,203.937,300.463,203.28Zm18.237.272-.192-.252c-1.185.621-2.39,1.207-3.544,1.881a3.3,3.3,0,0,0-1.048,1.088c-.056.088.433.744.656.736a2.28,2.28,0,0,0,1.412-.49C316.947,205.586,317.8,204.547,318.7,203.552Z" transform="translate(-292.227 -187.285)" fill="#fff"/>
  <path id="Path_4" data-name="Path 4" d="M555.3,238.992c-1.562,4.6-3,8.844-4.439,13.083-.569,1.678-4.393,2.727-5.722,1.5a3.006,3.006,0,0,1-.68-1.6q-2.387-12.775-4.718-25.561c-.352-1.931-.113-2.212,1.831-2.2,4.223.029,3.616-.573,4.414,3.721q1.335,7.187,2.667,14.375c.068.364.207.716.4,1.365,1.192-3.83,2.364-7.36,3.37-10.936A2.322,2.322,0,0,1,555.1,230.8c1.472.024,2.586.107,3.071,1.867a94.41,94.41,0,0,0,3.6,10.545c.4-2.092.813-4.181,1.2-6.276.682-3.728,1.361-7.457,2.006-11.192a1.586,1.586,0,0,1,1.876-1.542c.868.054,1.743.025,2.614.008,1.3-.025,1.728.534,1.482,1.83-1.213,6.383-2.376,12.777-3.554,19.167q-.589,3.2-1.164,6.393c-.386,2.169-.566,2.332-2.72,2.344a6.331,6.331,0,0,0-.817.005c-1.7.234-2.55-.53-3.062-2.152C558.309,247.62,556.832,243.5,555.3,238.992Z" transform="translate(-498.638 -218.08)" fill="#fff"/>
  <path id="Path_5" data-name="Path 5" d="M1146.677,278.354q-1.91,5.766-3.821,11.532c-.7,2.1-.712,2-3.711,2.113-1.677.061-2.275-.72-2.7-2.143-1.755-5.864-3.593-11.7-5.39-17.556-.635-2.066-.407-2.354,1.783-2.363,3-.012,3-.01,3.848,2.9,1.1,3.735,2.2,7.466,3.438,11.636,1.368-4.315,2.6-8.209,3.836-12.1.772-2.428,1.712-3.027,4.2-2.349.547.149,1.074.992,1.287,1.623,1.383,4.1,2.677,8.232,4.1,12.678.245-.7.408-1.107.533-1.526,1.086-3.632,2.222-7.251,3.217-10.908a2.253,2.253,0,0,1,2.611-1.984c3.457.094,3.456.017,2.423,3.346-1.75,5.639-3.542,11.265-5.211,16.927a2.164,2.164,0,0,1-2.594,1.8c-1.465-.1-2.978.37-3.593-1.8-1.13-3.994-2.567-7.9-3.875-11.846Z" transform="translate(-991.896 -256.102)" fill="#fff"/>
  <path id="Path_6" data-name="Path 6" d="M749.007,281.139c.321,4.054,2.512,6,5.574,5.62,1.089-.134,2.545-1.635,3.461-2.318.109-.2,3.945-.795,4.927,0a1.865,1.865,0,0,1,.252,1.754c-1.08,2.175-3.09,3.306-5.289,4.055a13.1,13.1,0,0,1-7.723.241c-3.642-.975-6.064-3.351-6.669-7.02a23.182,23.182,0,0,1-.049-7.716c.914-5.11,5.087-8.006,10.469-7.771,5.717.25,9.29,3.369,10.015,8.744.595,4.412.595,4.412-3.919,4.412Zm9.035-3.788c.24-3.2-1.647-5.427-4.483-5.412-2.809.015-4.644,2.256-4.39,5.412Z" transform="translate(-668.515 -254.609)" fill="#fff"/>
  <path id="Path_7" data-name="Path 7" d="M997.121,280.962c.176,2.444.674,4.461,2.9,5.336a4.683,4.683,0,0,0,5.575-1.517c.7-.791,4.75-1.173,5.567-.535a1.4,1.4,0,0,1,.446,1.087,3.131,3.131,0,0,1-.6,1.313c-3.525,5.153-13.573,5.522-17.49.652-3.22-4-3.229-12.083.067-16.026,3.027-3.619,7.081-4.014,11.329-3.092,4.064.883,6.224,3.754,7.065,7.668a27.123,27.123,0,0,1,.309,3.229c.13,1.426-.577,1.914-1.945,1.9-3.76-.043-7.52-.015-11.281-.014Zm.151-3.8h8.956c0-3.373-1.783-5.43-4.579-5.39-2.76.039-4.5,2.119-4.376,5.389Z" transform="translate(-875.386 -254.432)" fill="#fff"/>
  <path id="Path_8" data-name="Path 8" d="M1338.567,278.709c-.148-3.154.323-6.317,2.963-8.615,3.708-3.228,8.077-3.258,12.444-1.817,3.963,1.308,5.717,4.467,5.91,8.491a35.053,35.053,0,0,1-.1,5.509,8.639,8.639,0,0,1-7.7,7.838,20.188,20.188,0,0,1-5.182.059c-5.094-.644-8.155-4.114-8.331-9.2C1338.546,280.266,1338.567,279.561,1338.567,278.709Zm15.56.348a32.785,32.785,0,0,0-.48-3.9,4.072,4.072,0,0,0-4.38-3.337c-2.293-.007-4.089,1.1-4.371,3.314a31.241,31.241,0,0,0-.018,7.556c.254,2.149,2.155,3.351,4.377,3.361a4.091,4.091,0,0,0,4.353-3.184,29.939,29.939,0,0,0,.52-3.812Z" transform="translate(-1165.284 -254.103)" fill="#fff"/>
  <path id="Path_9" data-name="Path 9" d="M1556.62,228.353v4.424c0,3.634-.035,7.268.018,10.9.019,1.3-.421,1.853-1.774,1.893-3.856.113-3.855.152-3.855-3.717V228.367a24.572,24.572,0,0,1-4.2-.878c-.334-.128-.338-1.393-.311-2.129.125-3.385,2.914-1.062,4.443-2.191.013-.286.056-.855.061-1.424.037-4.673,2.252-7.093,6.961-7.539.973-.092,1.959-.064,2.94-.066a2.489,2.489,0,0,1,2.344,3.9,1.721,1.721,0,0,1-1.02.661,6.129,6.129,0,0,1-1.464.046c-3.6.006-4.415.919-4.014,4.782,1.417,0,2.874.093,4.314-.024,1.8-.146,1.914.9,1.888,2.235-.042,2.119-.162,2.309-1.952,2.34-1.306.022-2.613.03-3.919.054C1556.989,228.135,1556.9,228.219,1556.62,228.353Z" transform="translate(-1338.799 -209.691)" fill="#fff"/>
  <path id="Path_10" data-name="Path 10" d="M899.634,273.176c2.264-2.4,4.79-2.71,7.475-2.595,1.055.045,1.415.489,1.486,1.478.26,3.6.143,3.745-3.523,3.747-3.937,0-5.148,1.213-5.15,5.157,0,3.254-.048,6.51.021,9.762.03,1.424-.54,1.921-1.924,1.915-4.672-.017-3.955.132-3.976-3.916-.027-5.261-.008-10.522-.006-15.783,0-2.293.05-2.337,2.419-2.341a6.371,6.371,0,0,0,.654,0C898.7,270.428,899.99,270.64,899.634,273.176Z" transform="translate(-794.366 -256.765)" fill="#fff"/>
  <path id="Path_11" data-name="Path 11" d="M1499.5,237.145q0,6.42,0,12.839c0,1.908-.215,2.1-2.174,2.127-3.542.046-3.542.046-3.542-3.542q0-12.027,0-24.053c0-2.41.1-2.512,2.424-2.516,3.293-.006,3.293-.006,3.293,3.28Z" transform="translate(-1294.814 -216.252)" fill="#fff"/>
</svg>
