<svg width="869" height="880" viewBox="0 0 869 880" fill="none" xmlns="http://www.w3.org/2000/svg">
<path d="M626.91 617.248C629.648 604.086 631.038 590.676 631.059 577.229L630.991 571.907C629.679 528.309 612.487 482.251 579.887 435.012C531.756 365.249 463.153 312.455 443.273 297.934C453.245 291.446 463.573 285.525 474.206 280.2C484.018 275.295 494.146 271.054 504.522 267.506C514.296 264.179 524.307 261.601 534.47 259.793C544.324 258.058 554.301 257.121 564.304 256.99C568.973 261.111 573.58 265.277 578 269.379C591.748 283.222 604.956 297.548 617.259 311.952C655.494 356.66 684.893 401.959 704.637 446.593C706.857 451.583 709.083 456.902 711.251 462.405C719.696 483.667 726.037 505.712 730.181 528.221C724.723 538.579 718.301 548.396 711.002 557.539C689.11 584.978 659.966 605.67 626.907 617.245L626.91 617.248Z" fill="white"/>
<path d="M709.904 428.976C688.046 384.785 660.676 343.568 628.455 306.319L628.216 306.04L627.98 305.761L627.948 304.164C627.762 267.565 617.456 231.737 598.181 200.677C578.906 169.616 551.418 144.543 518.784 128.255L518.652 128.19L518.467 128.099C491.941 114.973 462.815 108.007 433.246 107.717C403.676 107.427 374.42 113.821 347.644 126.425C331.414 123.374 314.959 121.693 298.45 121.398H298.32C296.582 121.369 294.876 121.356 293.245 121.356C292.175 121.356 291.102 121.356 290.059 121.372C249.411 121.867 209.286 130.65 172.12 147.189L172.465 146.611L172.485 146.579L172.54 146.485L172.792 146.066L172.837 145.988L172.876 145.926L173.015 145.693L173.124 145.514L173.218 145.372L173.289 145.252L173.351 145.151L173.47 144.953L173.7 144.577L173.754 144.486L173.8 144.398C204.82 93.8413 249.911 53.5214 303.5 28.4221L304.146 28.1203L304.446 27.9808H304.469L304.731 27.8607L304.776 27.8413L304.912 27.7796L305.151 27.6725L305.267 27.6206L305.38 27.5654L305.842 27.3578C343.842 10.1026 384.947 0.813494 426.644 0.0584082C428.628 0.0194694 430.654 0 432.663 0C434.673 0 436.699 0.0194694 438.773 0.0616531C454.68 0.379689 470.539 1.92667 486.21 4.68888C488.911 5.16588 491.641 5.68507 494.329 6.23346C496.655 6.71046 499.001 7.20693 501.301 7.74558L501.398 7.76829L501.495 7.79101H501.544C519.52 11.923 537.09 17.6668 554.043 24.9533L555.885 25.7515C618.037 53.0544 669.227 100.575 701.21 160.658L701.31 160.853L701.458 161.129C722.23 200.752 733.708 244.62 735.015 289.38V289.474V289.692V289.737C735.015 289.844 735.015 289.955 735.015 290.062C735.077 292.434 735.109 294.864 735.112 297.288V297.882C735.112 298.765 735.112 299.68 735.112 300.478V300.549C735.018 312.48 734.324 324.399 733.035 336.259V336.324V336.354V336.448V336.5V336.542V336.672C733.035 336.746 733.035 336.821 733.012 336.899C732.366 342.788 731.555 348.704 730.621 354.483C726.9 377.144 721.01 399.391 713.032 420.916C712.46 422.47 711.849 424.089 711.219 425.731C710.831 426.743 710.437 427.753 709.943 429.005L709.904 428.976Z" fill="white"/>
<path d="M147.031 703.41C121.005 687.605 97.5289 667.91 77.4108 645.002C57.0719 621.914 40.3153 595.879 27.7059 567.773C8.30818 524.687 -1.12712 477.749 0.107239 430.479C1.3416 383.208 13.2136 336.832 34.8334 294.825C63.2095 239.177 108.104 193.762 163.305 164.861C204.46 143.413 250.139 132.195 296.504 132.149L296.798 132.149C314.909 132.183 332.976 133.945 350.755 137.412C375.934 142.394 400.489 150.151 423.975 160.542C400.538 172.573 378.029 186.348 356.639 201.752L354.749 203.079C340.096 213.112 324.287 225.238 303.493 242.404H303.267C301.79 242.32 300.482 242.248 299.416 242.248H299.164C263.962 242.264 229.4 251.696 199.031 269.575C168.663 287.454 143.585 313.135 126.376 343.976C110.342 372.679 101.772 404.979 101.46 437.889C101.148 470.799 109.103 503.257 124.589 532.261C122.442 548.281 121.363 564.427 121.358 580.591C121.394 622.869 130.131 664.684 147.021 703.41H147.031Z" fill="white"/>
<path d="M289.05 431.361C262.718 390.443 248.566 350.754 246.987 313.393C266.288 292.849 286.811 273.039 307.977 254.517C324.342 240.207 341.285 226.712 358.338 214.407L360.386 212.976C383.226 197.385 406.905 183.072 431.315 170.101C433.325 169.108 435.296 168.154 437.338 167.216C443.037 164.51 447.822 162.349 452.394 160.402C472.656 151.661 493.699 144.875 515.239 140.134C558.982 162.833 591.984 202.019 607.014 249.108C594.346 246.393 581.438 244.963 568.485 244.841C567.878 244.786 567.248 244.776 565.658 244.776C521.717 244.776 475.159 261.325 427.254 293.985C357.617 341.448 303.851 411.132 289.05 431.361Z" fill="white"/>
<path d="M307.651 626.003C287.71 608.539 267.749 589.238 248.318 568.633C244.276 564.334 240.279 560.025 236.441 555.822C205.83 518.589 180.253 477.455 160.375 433.49C158.672 429.664 156.976 425.621 155.186 421.13C145.835 398.021 138.934 373.988 134.598 349.427C151.864 319.235 177.116 294.435 207.556 277.773C217.618 272.271 228.17 267.726 239.074 264.197C236.106 278.33 234.63 292.738 234.67 307.182L234.758 311.248C235.924 353.957 252.437 399.142 283.836 445.548L288.86 442.118L284.86 447.008L285.904 448.517C309.385 481.844 336.508 512.425 366.768 539.689C367.682 540.565 368.706 541.561 369.63 542.363C385.594 557.387 402.5 571.368 420.243 584.222C381.326 609.435 343.447 623.495 307.651 626.003Z" fill="white"/>
<path d="M572.931 746.668H572.372C555.323 746.631 538.312 745.068 521.54 741.996C495.286 737.064 469.683 729.119 445.234 718.318C486.451 696.728 525.005 670.36 560.107 639.752L562.569 639.794H562.863C596.405 639.931 629.425 631.449 658.782 615.155C688.14 598.861 712.86 575.297 730.592 546.702C748.324 518.107 758.48 485.433 760.092 451.785C761.705 418.137 754.722 384.633 739.806 354.46C742.731 335.742 744.204 316.823 744.21 297.876C744.173 254.709 735.068 212.036 717.49 172.645C742.041 186.996 764.442 204.77 784.025 225.436C803.802 246.231 820.569 269.716 833.833 295.202C856.989 339.954 869.053 389.656 868.999 440.09C868.999 440.152 868.999 440.21 868.999 440.272C869.122 485.176 859.556 529.575 840.961 570.412C812.278 633.814 762.793 685.406 700.78 716.562C661.021 736.297 617.28 746.598 572.931 746.668Z" fill="white"/>
<path d="M347.03 741.48C336.654 735.812 326.841 729.161 317.725 721.618C290.377 698.996 270.013 669.018 259.016 635.193C271.185 637.479 283.539 638.63 295.919 638.629H295.965L298.482 638.587C300.966 638.587 303.457 638.503 305.884 638.337C346.406 636.085 389.323 619.802 433.441 589.939C433.842 589.776 434.224 589.57 434.582 589.326L437.761 587.025C471.198 563.24 501.86 535.748 529.168 505.069C530.399 503.771 531.352 502.723 532.005 501.934C547.446 485.379 561.748 467.788 574.812 449.283C602.252 491.038 617.03 531.59 618.752 569.808C614.604 574.289 610.352 578.725 606.152 582.995C603.118 586.117 599.913 589.31 596.352 592.756L591.377 597.558C584.682 603.85 578.611 609.37 572.821 614.432C570.353 616.619 567.691 618.913 564.683 621.451C561.859 623.907 559.038 626.25 555.907 628.839C516.864 660.887 474.728 688.933 430.127 712.558C419.639 718.094 413.255 721.05 411.545 721.825C401.132 726.154 390.315 730.028 379.401 733.345C368.648 736.609 357.753 739.344 347.036 741.457L347.03 741.48Z" fill="white"/>
<path d="M434.566 879.839H433.622C429.745 879.839 426.446 879.787 423.238 879.68C421.173 879.641 419.089 879.563 417.038 879.446C309.169 874.069 211.727 811.702 162.736 716.682C141.271 675.046 130.072 628.843 130.081 581.957C130.082 565.685 131.21 549.433 133.458 533.319C137.142 506.792 143.804 480.768 153.318 455.746C153.903 454.205 154.501 452.664 155.089 451.165C174.671 491.365 198.858 529.132 227.158 563.701C227.288 563.86 227.43 564.026 227.578 564.172C228.897 565.606 230.486 567.251 231.898 568.714L232.024 568.844C233.934 570.811 235.901 572.848 237.804 574.948C237.746 575.72 237.723 576.486 237.733 577.219C237.723 594.572 239.956 611.853 244.376 628.628C244.436 628.856 244.509 629.081 244.596 629.3C251.71 655.613 264.118 680.182 281.054 701.491C297.99 722.8 319.094 740.398 343.065 753.197C343.211 753.275 343.346 753.34 343.488 753.398C371.539 768.185 402.744 775.912 434.423 775.918C465.516 776.229 496.223 768.979 523.921 754.787C540.337 757.507 556.948 758.877 573.587 758.882H575.451C615.664 758.602 655.397 750.078 692.214 733.831C665.726 777.27 628.849 813.373 584.936 838.859C541.022 864.345 491.463 878.406 440.763 879.764C438.662 879.839 436.488 879.839 434.566 879.839Z" fill="white"/>
</svg>
